<mxfile host="app.diagrams.net" modified="2024-03-26T18:58:02.103Z" agent="Mozilla/5.0 (Windows NT 10.0; Win64; x64) AppleWebKit/537.36 (KHTML, like Gecko) Chrome/122.0.0.0 Safari/537.36" etag="1v0X0ABg1rdS7hD31NT2" version="24.1.0" type="device">
  <diagram name="Page-1" id="v_LZjq1Ws4N3eYoWx68Y">
    <mxGraphModel dx="1434" dy="746" grid="1" gridSize="10" guides="1" tooltips="1" connect="1" arrows="1" fold="1" page="1" pageScale="1" pageWidth="850" pageHeight="1100" math="0" shadow="0">
      <root>
        <mxCell id="0" />
        <mxCell id="1" parent="0" />
        <mxCell id="G0afOt7J4mxrKp-6have-1" value="Actor" style="shape=umlActor;verticalLabelPosition=bottom;verticalAlign=top;html=1;outlineConnect=0;" vertex="1" parent="1">
          <mxGeometry x="180" y="80" width="30" height="60" as="geometry" />
        </mxCell>
        <mxCell id="G0afOt7J4mxrKp-6have-3" style="edgeStyle=orthogonalEdgeStyle;rounded=0;orthogonalLoop=1;jettySize=auto;html=1;" edge="1" parent="1" source="G0afOt7J4mxrKp-6have-2">
          <mxGeometry relative="1" as="geometry">
            <mxPoint x="600" y="200" as="targetPoint" />
          </mxGeometry>
        </mxCell>
        <mxCell id="G0afOt7J4mxrKp-6have-9" style="edgeStyle=orthogonalEdgeStyle;rounded=0;orthogonalLoop=1;jettySize=auto;html=1;entryX=0.5;entryY=0;entryDx=0;entryDy=0;" edge="1" parent="1" source="G0afOt7J4mxrKp-6have-2" target="G0afOt7J4mxrKp-6have-8">
          <mxGeometry relative="1" as="geometry" />
        </mxCell>
        <mxCell id="G0afOt7J4mxrKp-6have-12" style="edgeStyle=orthogonalEdgeStyle;rounded=0;orthogonalLoop=1;jettySize=auto;html=1;" edge="1" parent="1" source="G0afOt7J4mxrKp-6have-2" target="G0afOt7J4mxrKp-6have-5">
          <mxGeometry relative="1" as="geometry" />
        </mxCell>
        <mxCell id="G0afOt7J4mxrKp-6have-2" value="broser" style="ellipse;shape=cloud;whiteSpace=wrap;html=1;" vertex="1" parent="1">
          <mxGeometry x="230" y="70" width="120" height="80" as="geometry" />
        </mxCell>
        <mxCell id="G0afOt7J4mxrKp-6have-6" style="edgeStyle=orthogonalEdgeStyle;rounded=0;orthogonalLoop=1;jettySize=auto;html=1;entryX=0.5;entryY=0;entryDx=0;entryDy=0;" edge="1" parent="1" source="G0afOt7J4mxrKp-6have-4" target="G0afOt7J4mxrKp-6have-5">
          <mxGeometry relative="1" as="geometry" />
        </mxCell>
        <mxCell id="G0afOt7J4mxrKp-6have-4" value="internet" style="ellipse;shape=cloud;whiteSpace=wrap;html=1;" vertex="1" parent="1">
          <mxGeometry x="540" y="200" width="120" height="80" as="geometry" />
        </mxCell>
        <mxCell id="G0afOt7J4mxrKp-6have-14" style="edgeStyle=orthogonalEdgeStyle;rounded=0;orthogonalLoop=1;jettySize=auto;html=1;" edge="1" parent="1" source="G0afOt7J4mxrKp-6have-5">
          <mxGeometry relative="1" as="geometry">
            <mxPoint x="560" y="410" as="targetPoint" />
          </mxGeometry>
        </mxCell>
        <mxCell id="G0afOt7J4mxrKp-6have-5" value="service now" style="whiteSpace=wrap;html=1;aspect=fixed;" vertex="1" parent="1">
          <mxGeometry x="210" y="290" width="180" height="180" as="geometry" />
        </mxCell>
        <mxCell id="G0afOt7J4mxrKp-6have-7" value="BD" style="shape=cylinder3;whiteSpace=wrap;html=1;boundedLbl=1;backgroundOutline=1;size=15;" vertex="1" parent="1">
          <mxGeometry x="280" y="390" width="60" height="80" as="geometry" />
        </mxCell>
        <mxCell id="G0afOt7J4mxrKp-6have-8" value="RU/CH" style="rounded=1;whiteSpace=wrap;html=1;" vertex="1" parent="1">
          <mxGeometry x="60" y="460" width="150" height="120" as="geometry" />
        </mxCell>
        <mxCell id="G0afOt7J4mxrKp-6have-10" value="BD" style="shape=cylinder3;whiteSpace=wrap;html=1;boundedLbl=1;backgroundOutline=1;size=15;" vertex="1" parent="1">
          <mxGeometry x="150" y="530" width="60" height="80" as="geometry" />
        </mxCell>
        <mxCell id="G0afOt7J4mxrKp-6have-11" value="1" style="text;html=1;align=center;verticalAlign=middle;resizable=0;points=[];autosize=1;strokeColor=none;fillColor=none;" vertex="1" parent="1">
          <mxGeometry x="105" y="288" width="30" height="30" as="geometry" />
        </mxCell>
        <mxCell id="G0afOt7J4mxrKp-6have-13" value="2" style="text;html=1;align=center;verticalAlign=middle;resizable=0;points=[];autosize=1;strokeColor=none;fillColor=none;" vertex="1" parent="1">
          <mxGeometry x="265" y="178" width="30" height="30" as="geometry" />
        </mxCell>
        <mxCell id="G0afOt7J4mxrKp-6have-15" value="California" style="ellipse;whiteSpace=wrap;html=1;aspect=fixed;" vertex="1" parent="1">
          <mxGeometry x="560" y="370" width="80" height="80" as="geometry" />
        </mxCell>
        <mxCell id="G0afOt7J4mxrKp-6have-16" style="edgeStyle=orthogonalEdgeStyle;rounded=0;orthogonalLoop=1;jettySize=auto;html=1;entryX=1;entryY=1;entryDx=0;entryDy=-15;entryPerimeter=0;" edge="1" parent="1" source="G0afOt7J4mxrKp-6have-7" target="G0afOt7J4mxrKp-6have-10">
          <mxGeometry relative="1" as="geometry" />
        </mxCell>
      </root>
    </mxGraphModel>
  </diagram>
</mxfile>
